{
  "accessors": [
    {
      "bufferView": 1,
      "componentType": 5126,
      "count": 2700,
      "max": [
        4.175553798675537,
        0.23550763726234436,
        4.468520164489746
      ],
      "min": [
        0.6966277360916138,
        -0.30912622809410095,
        0.6392607688903809
      ],
      "type": "VEC3"
    },
    {
      "bufferView": 1,
      "byteOffset": 32400,
      "componentType": 5126,
      "count": 2700,
      "max": [
        1.0,
        1.0,
        1.0
      ],
      "min": [
        -0.9997105598449707,
        -1.0,
        -1.0
      ],
      "type": "VEC3"
    },
    {
      "bufferView": 0,
      "componentType": 5125,
      "count": 3549,
      "type": "SCALAR"
    },
    {
      "bufferView": 1,
      "byteOffset": 64800,
      "componentType": 5126,
      "count": 7843,
      "max": [
        4.171703338623047,
        0.4278569519519806,
        4.465013027191162
      ],
      "min": [
        -0.34116825461387634,
        -0.4211372435092926,
        0.014567678794264793
      ],
      "type": "VEC3"
    },
    {
      "bufferView": 1,
      "byteOffset": 158916,
      "componentType": 5126,
      "count": 7843,
      "max": [
        1.0,
        1.0,
        1.0
      ],
      "min": [
        -0.9996956586837769,
        -0.9999832510948181,
        -1.0
      ],
      "type": "VEC3"
    },
    {
      "bufferView": 0,
      "byteOffset": 14196,
      "componentType": 5125,
      "count": 8721,
      "type": "SCALAR"
    },
    {
      "bufferView": 1,
      "byteOffset": 253032,
      "componentType": 5126,
      "count": 290,
      "max": [
        4.129703521728516,
        0.10262089967727661,
        4.23705530166626
      ],
      "min": [
        0.70521080493927,
        -0.3098483383655548,
        1.669894814491272
      ],
      "type": "VEC3"
    },
    {
      "bufferView": 1,
      "byteOffset": 256512,
      "componentType": 5126,
      "count": 290,
      "max": [
        0.8252707719802856,
        -0.10415665060281754,
        0.9778343439102173
      ],
      "min": [
        -0.9310191869735718,
        -0.9993340373039246,
        -0.9778343439102173
      ],
      "type": "VEC3"
    },
    {
      "bufferView": 0,
      "byteOffset": 49080,
      "componentType": 5125,
      "count": 1584,
      "type": "SCALAR"
    },
    {
      "bufferView": 1,
      "byteOffset": 259992,
      "componentType": 5126,
      "count": 435,
      "max": [
        4.129703521728516,
        0.10262089967727661,
        4.012603282928467
      ],
      "min": [
        0.70521080493927,
        -0.3098483383655548,
        1.4454436302185059
      ],
      "type": "VEC3"
    },
    {
      "bufferView": 1,
      "byteOffset": 265212,
      "componentType": 5126,
      "count": 435,
      "max": [
        0.8252707719802856,
        0.9310168027877808,
        0.977844774723053
      ],
      "min": [
        -0.9993339776992798,
        -0.9993339776992798,
        -0.9778387546539307
      ],
      "type": "VEC3"
    },
    {
      "bufferView": 0,
      "byteOffset": 55416,
      "componentType": 5125,
      "count": 2376,
      "type": "SCALAR"
    },
    {
      "bufferView": 1,
      "byteOffset": 270432,
      "componentType": 5126,
      "count": 435,
      "max": [
        4.129703521728516,
        0.10262089967727661,
        4.461505889892578
      ],
      "min": [
        0.70521080493927,
        -0.3098483383655548,
        1.669894814491272
      ],
      "type": "VEC3"
    },
    {
      "bufferView": 1,
      "byteOffset": 275652,
      "componentType": 5126,
      "count": 435,
      "max": [
        0.8252696990966797,
        0.9310168027877808,
        0.9778388142585754
      ],
      "min": [
        -0.9993339776992798,
        -0.9993339776992798,
        -0.9778387546539307
      ],
      "type": "VEC3"
    },
    {
      "bufferView": 0,
      "byteOffset": 64920,
      "componentType": 5125,
      "count": 2376,
      "type": "SCALAR"
    },
    {
      "bufferView": 1,
      "byteOffset": 280872,
      "componentType": 5126,
      "count": 1030,
      "max": [
        4.224186420440674,
        0.11357441544532776,
        4.574156761169434
      ],
      "min": [
        0.6105661392211914,
        -0.30673056840896606,
        0.693532407283783
      ],
      "type": "VEC3"
    },
    {
      "bufferView": 1,
      "byteOffset": 293232,
      "componentType": 5126,
      "count": 1030,
      "max": [
        1.0,
        0.9933483600616455,
        1.0
      ],
      "min": [
        -0.9933584928512573,
        -0.9933527708053589,
        -1.0
      ],
      "type": "VEC3"
    },
    {
      "bufferView": 0,
      "byteOffset": 74424,
      "componentType": 5125,
      "count": 1059,
      "type": "SCALAR"
    },
    {
      "bufferView": 1,
      "byteOffset": 305592,
      "componentType": 5126,
      "count": 495,
      "max": [
        4.216081142425537,
        0.11125997453927994,
        4.566160202026367
      ],
      "min": [
        0.6185101866722107,
        -0.3058096170425415,
        0.7468395233154297
      ],
      "type": "VEC3"
    },
    {
      "bufferView": 1,
      "byteOffset": 311532,
      "componentType": 5126,
      "count": 495,
      "max": [
        1.0,
        1.0,
        0.057762280106544495
      ],
      "min": [
        -0.9916820526123047,
        -0.9933491349220276,
        -0.05793643742799759
      ],
      "type": "VEC3"
    },
    {
      "bufferView": 0,
      "byteOffset": 78660,
      "componentType": 5125,
      "count": 696,
      "type": "SCALAR"
    }
  ],
  "asset": {
    "extras": {
      "author": "James (https://sketchfab.com/james)",
      "license": "CC-BY-4.0 (http://creativecommons.org/licenses/by/4.0/)",
      "source": "https://sketchfab.com/3d-models/traffic-light-d2c5b630485f42d98c45a74168757209",
      "title": "Traffic Light"
    },
    "generator": "Sketchfab-12.63.0",
    "version": "2.0"
  },
  "bufferViews": [
    {
      "buffer": 0,
      "byteLength": 81444,
      "name": "floatBufferViews",
      "target": 34963
    },
    {
      "buffer": 0,
      "byteLength": 317472,
      "byteOffset": 81444,
      "byteStride": 12,
      "name": "floatBufferViews",
      "target": 34962
    }
  ],
  "buffers": [
    {
      "byteLength": 398916,
      "uri": "scene.bin"
    }
  ],
  "materials": [
    {
      "doubleSided": true,
      "name": "15_-_Default",
      "pbrMetallicRoughness": {
        "baseColorFactor": [
          0.588235,
          0.588235,
          0.588235,
          1.0
        ],
        "metallicFactor": 0.0,
        "roughnessFactor": 0.9
      }
    },
    {
      "doubleSided": true,
      "name": "22_-_Default",
      "pbrMetallicRoughness": {
        "baseColorFactor": [
          0.25098,
          0.25098,
          0.25098,
          1.0
        ],
        "metallicFactor": 0.0,
        "roughnessFactor": 0.9
      }
    },
    {
      "doubleSided": true,
      "name": "21_-_Default",
      "pbrMetallicRoughness": {
        "baseColorFactor": [
          0.905882,
          0.827451,
          0.588235,
          1.0
        ],
        "metallicFactor": 0.0,
        "roughnessFactor": 0.9
      }
    },
    {
      "doubleSided": true,
      "name": "20_-_Default",
      "pbrMetallicRoughness": {
        "baseColorFactor": [
          0.423529,
          0.47451,
          0.380392,
          1.0
        ],
        "metallicFactor": 0.0,
        "roughnessFactor": 0.9
      }
    },
    {
      "doubleSided": true,
      "name": "19_-_Default",
      "pbrMetallicRoughness": {
        "baseColorFactor": [
          0.862745,
          0.301961,
          0.301961,
          1.0
        ],
        "metallicFactor": 0.0,
        "roughnessFactor": 0.9
      }
    },
    {
      "doubleSided": true,
      "name": "23_-_Default",
      "pbrMetallicRoughness": {
        "baseColorFactor": [
          0.270588,
          0.164706,
          0.164706,
          1.0
        ],
        "metallicFactor": 0.0,
        "roughnessFactor": 0.9
      }
    }
  ],
  "meshes": [
    {
      "name": "Object_0",
      "primitives": [
        {
          "attributes": {
            "NORMAL": 1,
            "POSITION": 0
          },
          "indices": 2,
          "material": 0,
          "mode": 4
        }
      ]
    },
    {
      "name": "Object_1",
      "primitives": [
        {
          "attributes": {
            "NORMAL": 4,
            "POSITION": 3
          },
          "indices": 5,
          "material": 1,
          "mode": 4
        }
      ]
    },
    {
      "name": "Object_2",
      "primitives": [
        {
          "attributes": {
            "NORMAL": 7,
            "POSITION": 6
          },
          "indices": 8,
          "material": 2,
          "mode": 4
        }
      ]
    },
    {
      "name": "Object_3",
      "primitives": [
        {
          "attributes": {
            "NORMAL": 10,
            "POSITION": 9
          },
          "indices": 11,
          "material": 3,
          "mode": 4
        }
      ]
    },
    {
      "name": "Object_4",
      "primitives": [
        {
          "attributes": {
            "NORMAL": 13,
            "POSITION": 12
          },
          "indices": 14,
          "material": 4,
          "mode": 4
        }
      ]
    },
    {
      "name": "Object_5",
      "primitives": [
        {
          "attributes": {
            "NORMAL": 16,
            "POSITION": 15
          },
          "indices": 17,
          "material": 5,
          "mode": 4
        }
      ]
    },
    {
      "name": "Object_6",
      "primitives": [
        {
          "attributes": {
            "NORMAL": 19,
            "POSITION": 18
          },
          "indices": 20,
          "material": 5,
          "mode": 4
        }
      ]
    }
  ],
  "nodes": [
    {
      "children": [
        1
      ],
      "matrix": [
        1.0,
        0.0,
        0.0,
        0.0,
        0.0,
        2.220446049250313e-16,
        -1.0,
        0.0,
        0.0,
        1.0,
        2.220446049250313e-16,
        0.0,
        0.0,
        0.0,
        0.0,
        1.0
      ],
      "name": "Sketchfab_model"
    },
    {
      "children": [
        2
      ],
      "matrix": [
        0.7014098167419434,
        0.0,
        0.0,
        0.0,
        0.0,
        0.7014098167419434,
        0.0,
        0.0,
        0.0,
        0.0,
        0.7014098167419434,
        0.0,
        1.9415092468261719,
        0.0033598486334085464,
        2.2908551692962646,
        1.0
      ],
      "name": "SLight"
    },
    {
      "children": [
        3,
        6,
        9,
        12,
        15,
        18,
        21
      ],
      "matrix": [
        -0.9933470454389403,
        0.11515965646314692,
        0.0,
        0.0,
        -0.11515965646314692,
        -0.9933470454389403,
        0.0,
        0.0,
        0.0,
        0.0,
        0.9999999999999999,
        0.0,
        2.9921561589244594,
        -0.30903582859069195,
        -3.2453032469205545,
        1.0
      ],
      "name": "pow1"
    },
    {
      "children": [
        4
      ],
      "matrix": [
        1.0,
        -1.3877787807814457e-17,
        0.0,
        0.0,
        -1.3877787807814457e-17,
        1.0,
        0.0,
        0.0,
        0.0,
        0.0,
        0.9999999999999999,
        0.0,
        0.0,
        0.0,
        0.0,
        1.0
      ],
      "name": "covers09"
    },
    {
      "children": [
        5
      ],
      "matrix": [
        -1.4162150332940704,
        -0.16418307690574388,
        0.0,
        0.0,
        0.16418307690574388,
        -1.4162150332940702,
        0.0,
        0.0,
        0.0,
        0.0,
        1.4257000346031816,
        0.0,
        5.756881125430536,
        0.3611169495491258,
        -0.020769140161071353,
        1.0
      ],
      "name": "3DSMeshMatrix"
    },
    {
      "mesh": 0,
      "name": "Object_5"
    },
    {
      "children": [
        7
      ],
      "matrix": [
        1.0,
        -1.3877787807814457e-17,
        0.0,
        0.0,
        -1.3877787807814457e-17,
        1.0,
        0.0,
        0.0,
        0.0,
        0.0,
        0.9999999999999999,
        0.0,
        0.0,
        0.0,
        0.0,
        1.0
      ],
      "name": "fr2sw"
    },
    {
      "children": [
        8
      ],
      "matrix": [
        -1.4162150332940704,
        -0.16418307690574388,
        0.0,
        0.0,
        0.16418307690574388,
        -1.4162150332940702,
        0.0,
        0.0,
        0.0,
        0.0,
        1.4257000346031816,
        0.0,
        5.756881125430536,
        0.3611169495491258,
        -0.020769140161071353,
        1.0
      ],
      "name": "3DSMeshMatrix"
    },
    {
      "mesh": 1,
      "name": "Object_8"
    },
    {
      "children": [
        10
      ],
      "matrix": [
        1.0,
        -1.3877787807814457e-17,
        0.0,
        0.0,
        -1.3877787807814457e-17,
        1.0,
        0.0,
        0.0,
        0.0,
        0.0,
        0.9999999999999999,
        0.0,
        0.0,
        0.0,
        0.0,
        1.0
      ],
      "name": "fra0"
    },
    {
      "children": [
        11
      ],
      "matrix": [
        -1.4162150332940704,
        -0.16418307690574388,
        0.0,
        0.0,
        0.16418307690574388,
        -1.4162150332940702,
        0.0,
        0.0,
        0.0,
        0.0,
        1.4257000346031816,
        0.0,
        5.756881125430536,
        0.3611169495491258,
        -0.020769140161071353,
        1.0
      ],
      "name": "3DSMeshMatrix"
    },
    {
      "mesh": 2,
      "name": "Object_11"
    },
    {
      "children": [
        13
      ],
      "matrix": [
        1.0,
        -1.3877787807814457e-17,
        0.0,
        0.0,
        -1.3877787807814457e-17,
        1.0,
        0.0,
        0.0,
        0.0,
        0.0,
        0.9999999999999999,
        0.0,
        0.0,
        0.0,
        0.0,
        1.0
      ],
      "name": "lightsw"
    },
    {
      "children": [
        14
      ],
      "matrix": [
        -1.4162150332940704,
        -0.16418307690574388,
        0.0,
        0.0,
        0.16418307690574388,
        -1.4162150332940702,
        0.0,
        0.0,
        0.0,
        0.0,
        1.4257000346031816,
        0.0,
        5.756881125430536,
        0.3611169495491258,
        -0.020769140161071353,
        1.0
      ],
      "name": "3DSMeshMatrix"
    },
    {
      "mesh": 3,
      "name": "Object_14"
    },
    {
      "children": [
        16
      ],
      "matrix": [
        1.0,
        -1.3877787807814457e-17,
        0.0,
        0.0,
        -1.3877787807814457e-17,
        1.0,
        0.0,
        0.0,
        0.0,
        0.0,
        0.9999999999999999,
        0.0,
        0.0,
        0.0,
        0.0,
        1.0
      ],
      "name": "ds2"
    },
    {
      "children": [
        17
      ],
      "matrix": [
        -1.4162150332940704,
        -0.16418307690574388,
        0.0,
        0.0,
        0.16418307690574388,
        -1.4162150332940702,
        0.0,
        0.0,
        0.0,
        0.0,
        1.4257000346031816,
        0.0,
        5.756881125430536,
        0.3611169495491258,
        -0.020769140161071353,
        1.0
      ],
      "name": "3DSMeshMatrix"
    },
    {
      "mesh": 4,
      "name": "Object_17"
    },
    {
      "children": [
        19
      ],
      "matrix": [
        1.0,
        -1.3877787807814457e-17,
        0.0,
        0.0,
        -1.3877787807814457e-17,
        1.0,
        0.0,
        0.0,
        0.0,
        0.0,
        0.9999999999999999,
        0.0,
        0.0,
        0.0,
        0.0,
        1.0
      ],
      "name": "sds1"
    },
    {
      "children": [
        20
      ],
      "matrix": [
        -1.4162150332940704,
        -0.16418307690574388,
        0.0,
        0.0,
        0.16418307690574388,
        -1.4162150332940702,
        0.0,
        0.0,
        0.0,
        0.0,
        1.4257000346031816,
        0.0,
        5.756881125430536,
        0.3611169495491258,
        -0.020769140161071353,
        1.0
      ],
      "name": "3DSMeshMatrix"
    },
    {
      "mesh": 5,
      "name": "Object_20"
    },
    {
      "children": [
        22
      ],
      "matrix": [
        1.0,
        -1.3877787807814457e-17,
        0.0,
        0.0,
        -1.3877787807814457e-17,
        1.0,
        0.0,
        0.0,
        0.0,
        0.0,
        0.9999999999999999,
        0.0,
        0.0,
        0.0,
        0.0,
        1.0
      ],
      "name": "tf3"
    },
    {
      "children": [
        23
      ],
      "matrix": [
        -1.4162150332940704,
        -0.16418307690574388,
        0.0,
        0.0,
        0.16418307690574388,
        -1.4162150332940702,
        0.0,
        0.0,
        0.0,
        0.0,
        1.4257000346031816,
        0.0,
        5.756881125430536,
        0.3611169495491258,
        -0.020769140161071353,
        1.0
      ],
      "name": "3DSMeshMatrix"
    },
    {
      "mesh": 6,
      "name": "Object_23"
    }
  ],
  "scene": 0,
  "scenes": [
    {
      "name": "Sketchfab_Scene",
      "nodes": [
        0
      ]
    }
  ]
}
